<?xml version="1.0" encoding="UTF-8" standalone="no"?>
<!-- Created with Inkscape (http://www.inkscape.org/) -->

<svg
   xmlns:dc="http://purl.org/dc/elements/1.1/"
   xmlns:cc="http://creativecommons.org/ns#"
   xmlns:rdf="http://www.w3.org/1999/02/22-rdf-syntax-ns#"
   xmlns:svg="http://www.w3.org/2000/svg"
   xmlns="http://www.w3.org/2000/svg"
   xmlns:sodipodi="http://sodipodi.sourceforge.net/DTD/sodipodi-0.dtd"
   xmlns:inkscape="http://www.inkscape.org/namespaces/inkscape"
   id="svg2"
   version="1.1"
   inkscape:version="0.92.2 (5c3e80d, 2017-08-06)"
   xml:space="preserve"
   width="1045"
   height="708.75"
   viewBox="0 0 1045 708.75"
   sodipodi:docname="vairable_start9522.svg"><metadata
     id="metadata8"><rdf:RDF><cc:Work
         rdf:about=""><dc:format>image/svg+xml</dc:format><dc:type
           rdf:resource="http://purl.org/dc/dcmitype/StillImage" /><dc:title /></cc:Work></rdf:RDF></metadata><defs
     id="defs6"><clipPath
       clipPathUnits="userSpaceOnUse"
       id="clipPath22"><path
         d="m 1404.41,847.191 6695.98,0 0,4607.97 -6695.98,0 0,-4607.97 z"
         id="path24"
         inkscape:connector-curvature="0" /></clipPath><clipPath
       clipPathUnits="userSpaceOnUse"
       id="clipPath42"><path
         d="m 1404.41,847.191 6695.98,0 0,4607.97 -6695.98,0 0,-4607.97 z"
         id="path44"
         inkscape:connector-curvature="0" /></clipPath><clipPath
       clipPathUnits="userSpaceOnUse"
       id="clipPath62"><path
         d="m 1404.41,847.191 6695.98,0 0,4607.97 -6695.98,0 0,-4607.97 z"
         id="path64"
         inkscape:connector-curvature="0" /></clipPath><clipPath
       clipPathUnits="userSpaceOnUse"
       id="clipPath82"><path
         d="m 1404.41,847.191 6695.98,0 0,4607.97 -6695.98,0 0,-4607.97 z"
         id="path84"
         inkscape:connector-curvature="0" /></clipPath><clipPath
       clipPathUnits="userSpaceOnUse"
       id="clipPath102"><path
         d="m 1404.41,847.191 6695.98,0 0,4607.97 -6695.98,0 0,-4607.97 z"
         id="path104"
         inkscape:connector-curvature="0" /></clipPath><clipPath
       clipPathUnits="userSpaceOnUse"
       id="clipPath122"><path
         d="m 1404.41,847.191 6695.98,0 0,4607.97 -6695.98,0 0,-4607.97 z"
         id="path124"
         inkscape:connector-curvature="0" /></clipPath><clipPath
       clipPathUnits="userSpaceOnUse"
       id="clipPath142"><path
         d="m 1404.41,847.191 6695.98,0 0,4607.97 -6695.98,0 0,-4607.97 z"
         id="path144"
         inkscape:connector-curvature="0" /></clipPath><clipPath
       clipPathUnits="userSpaceOnUse"
       id="clipPath166"><path
         d="m 1404.41,847.191 6695.98,0 0,4607.97 -6695.98,0 0,-4607.97 z"
         id="path168"
         inkscape:connector-curvature="0" /></clipPath><clipPath
       clipPathUnits="userSpaceOnUse"
       id="clipPath186"><path
         d="m 1404.41,847.191 6695.98,0 0,4607.97 -6695.98,0 0,-4607.97 z"
         id="path188"
         inkscape:connector-curvature="0" /></clipPath><clipPath
       clipPathUnits="userSpaceOnUse"
       id="clipPath206"><path
         d="m 1404.41,847.191 6695.98,0 0,4607.97 -6695.98,0 0,-4607.97 z"
         id="path208"
         inkscape:connector-curvature="0" /></clipPath><clipPath
       clipPathUnits="userSpaceOnUse"
       id="clipPath226"><path
         d="m 1404.41,847.191 6695.98,0 0,4607.97 -6695.98,0 0,-4607.97 z"
         id="path228"
         inkscape:connector-curvature="0" /></clipPath><clipPath
       clipPathUnits="userSpaceOnUse"
       id="clipPath246"><path
         d="m 1404.41,847.191 6695.98,0 0,4607.97 -6695.98,0 0,-4607.97 z"
         id="path248"
         inkscape:connector-curvature="0" /></clipPath><clipPath
       clipPathUnits="userSpaceOnUse"
       id="clipPath266"><path
         d="m 1404.41,847.191 6695.98,0 0,4607.97 -6695.98,0 0,-4607.97 z"
         id="path268"
         inkscape:connector-curvature="0" /></clipPath><clipPath
       clipPathUnits="userSpaceOnUse"
       id="clipPath286"><path
         d="m 1404.41,847.191 6695.98,0 0,4607.97 -6695.98,0 0,-4607.97 z"
         id="path288"
         inkscape:connector-curvature="0" /></clipPath><clipPath
       clipPathUnits="userSpaceOnUse"
       id="clipPath306"><path
         d="m 1404.41,847.191 6695.98,0 0,4607.97 -6695.98,0 0,-4607.97 z"
         id="path308"
         inkscape:connector-curvature="0" /></clipPath><clipPath
       clipPathUnits="userSpaceOnUse"
       id="clipPath326"><path
         d="m 1404.41,847.191 6695.98,0 0,4607.97 -6695.98,0 0,-4607.97 z"
         id="path328"
         inkscape:connector-curvature="0" /></clipPath><clipPath
       clipPathUnits="userSpaceOnUse"
       id="clipPath346"><path
         d="m 1404.41,847.191 6695.98,0 0,4607.97 -6695.98,0 0,-4607.97 z"
         id="path348"
         inkscape:connector-curvature="0" /></clipPath></defs><sodipodi:namedview
     pagecolor="#ffffff"
     bordercolor="#666666"
     borderopacity="1"
     objecttolerance="10"
     gridtolerance="10"
     guidetolerance="10"
     inkscape:pageopacity="0"
     inkscape:pageshadow="2"
     inkscape:window-width="1867"
     inkscape:window-height="1025"
     id="namedview4"
     showgrid="false"
     inkscape:zoom="1.3129187"
     inkscape:cx="761.6063"
     inkscape:cy="506.88567"
     inkscape:window-x="53"
     inkscape:window-y="27"
     inkscape:window-maximized="1"
     inkscape:current-layer="g10" /><g
     id="g10"
     inkscape:groupmode="layer"
     inkscape:label="ink_ext_XXXXXX"
     transform="matrix(1.25,0,0,-1.25,0,708.75)"><g
       id="g12"
       transform="scale(0.1,0.1)"><path
         d="m 0,7.64844 8363.59,0 0,5664.68996 -8363.59,0 L 0,7.64844 Z"
         style="fill:#ffffff;fill-opacity:1;fill-rule:nonzero;stroke:none"
         id="path14"
         inkscape:connector-curvature="0" /><path
         d="m 1404.65,847.191 6696.02,0 0,4607.97 -6696.02,0 0,-4607.97 z"
         style="fill:#ffffff;fill-opacity:1;fill-rule:nonzero;stroke:none"
         id="path16"
         inkscape:connector-curvature="0" /><g
         id="g18"><g
           id="g20"
           clip-path="url(#clipPath22)"><path
             d="m 1923.59,898.52 2.97,0 0.16,-17.11 2.93,0 0.31,-34.219 2.62,0 0.15,17.11 1.41,0 1.09,68.429 4.18,0 0.16,-17.109 1.41,0 0.47,-34.211 0.58,17.11 6.21,0 0.31,-34.219 1.84,0 2.03,119.758 1.56,0 2.78,205.351 0.31,0 0.16,17.11 2.03,-119.76 1.52,0 3.28,-239.569 11.45,0 2.34,359.329 5.43,2087.7 0.47,479.18 0.94,-51.37 2.61,-804.26 4.65,-1677.03 0.16,17.11 0.16,0 0.62,68.48 0.31,-34.22 1.41,0 1.05,17.11 0.32,0 1.25,-136.92 2.46,0 2.81,205.36 0.31,0 1.25,51.32 5.86,-547.57 0.31,0 0.94,51.32 1.56,0 0.16,-17.109 4.18,0 0.94,-68.43 1.52,0 0.47,34.219 6.37,0 0.47,-34.219 2.61,0 0.94,85.539 2.66,0 0.31,34.219 2.93,0 0.94,-51.328 2.61,188.249 1.25,-34.22 2.31,359.33 0.31,51.33 2.03,-188.2 2.15,0 2.5,-393.59 0.47,85.539 1.09,0 0.47,-34.219 0.74,17.109 2.04,136.921 1.09,0 2.93,222.46 1.4,-34.22 0.32,0 0.47,-34.26 0.31,34.26 0.31,17.11 1.21,0 2.81,-239.57 0.16,17.11 3.87,1060.94 0.47,0 1.09,17.1 2.77,-410.7 2.04,-564.69 0.15,0 2.15,119.81 0.16,0 1.25,-34.26 0.93,17.15 1.53,-154.02 0.62,34.21 1.25,17.11 0.31,-17.11 1.57,102.66 0.58,0 0.2,-17.11 1.68,68.48 0.62,0 2,-256.68 0.15,17.11 2.19,-119.811 0.16,17.11 1.71,-68.438 0.12,0 2.66,205.359 0.47,0 0.62,-17.11 0.16,17.11 0.93,0 0.16,-17.11 1.52,0 2.97,-239.569 1.06,0 0.47,-17.11 0.15,17.11 0.63,0 0.15,17.109 5.9,0 0.94,-34.219 8.05,0 7.15,752.929 1.52,-85.59 0.47,0 2.97,-205.31 0.15,0 1.68,-136.92 1.56,85.55 0.47,0 2,102.7 0.93,0 0.47,-17.11 1.41,102.65 4.02,0 1.41,154.03 3.08,0 0.79,-34.22 0.15,17.11 0.63,0 1.05,-68.48 0.2,17.11 0.89,171.13 0.32,-17.11 7.93,-838.469 1.05,0 0.31,34.219 1.72,0 0.16,17.11 4.65,0 1.25,-34.219 0.78,17.109 0.16,-17.109 9.88,0 2.81,307.999 0.16,-17.1 3.86,0 2.04,-308.009 394.92,0 3.71,376.439 3.12,0 3.71,-376.439 43.56,0 0.16,17.11 4.33,0 2.93,410.659 4.38,804.3 0.11,-17.11 3.44,-564.73 0.31,0 1.68,-308.01 1.56,-325.109 0.94,0 0.16,-17.11 47.58,0 2.93,273.789 3.86,0 2.97,-273.789 1.41,0 1.68,102.649 4.96,0 0.16,17.109 0.46,-17.109 0.32,-17.11 0.15,17.11 1.57,51.33 0.15,0 5.12,479.14 0.16,-17.11 0.15,0 1.68,85.59 0.16,-17.15 2.03,222.46 0.16,-17.11 0.15,34.22 0.31,-34.22 0.32,-17.11 0.15,34.22 0.43,-34.22 0.31,-34.22 0.16,17.11 1.25,136.92 0.31,-34.22 0.47,17.11 0.31,34.22 0.47,-34.22 2.31,-393.6 0.31,34.22 0.16,0 1.09,171.14 0.31,-51.33 1.72,-222.46 0.43,-85.59 1.25,0 1.41,-34.22 0.15,17.11 1.57,-290.901 0.31,-51.328 1.05,0 0.16,-17.101 3.44,0 0.27,-51.329 2.97,0 1.21,256.679 0.94,239.57 4.69,0 1.21,-256.68 0.93,-239.569 50.08,0 3.4,273.789 1.09,0 1.1,68.43 1.21,0 3.44,-273.789 1.05,0 1.1,-68.43 12.1,0 0.16,17.11 6.64,0 0.16,-17.11 26.52,0 0.16,17.11 6.64,0 0.15,-17.11 370.32,0 0.93,51.329 0.9,0 1.1,102.65 0.78,0 1.4,85.59 1.68,0 0.94,-51.37 0.94,0 1.09,-102.66 0.78,0 1.37,-85.539 10.39,0 0.16,17.11 6.68,0 0.15,-17.11 5.12,0 0.16,17.11 6.64,0 0.15,-17.11 16.92,0 1.37,239.569 2.96,855.58 0.16,0 1.21,256.68 1.56,393.6 0.63,0 0.31,51.33 0.63,-51.33 2.93,-633.17 1.25,-256.68 2.65,-684.49 1.21,-171.089 7.62,0 0.62,51.329 6.18,0 0.62,-51.329 10.08,0 2.97,239.569 1.83,0 0.94,85.54 1.1,0 2.93,-222.46 1.87,0 0.94,-85.539 1.37,0 1.25,-17.11 0.15,17.11 6.37,0 0.31,34.219 0.16,-17.11 1.05,0 0.47,51.32 4.81,0 0.31,-34.21 1.25,0 0.47,-51.329 5.27,0 1.06,85.539 1.4,0 1.1,85.55 1.83,0 5.74,1026.76 1.1,68.44 0.15,-34.22 4.65,-958.28 0.63,34.22 0.31,0 0.94,-17.11 0.47,0 0.89,-17.11 0.2,17.11 0.16,0 1.83,85.54 0.63,0 2.03,154.03 0.11,-17.11 1.88,0 5.27,-479.14 0.94,0 1.52,51.32 0.94,0 6.84,633.17 6.21,-616.06 0.94,0 1.52,-68.43 0.31,0 0.31,-34.219 46.33,0 0.16,17.11 6.68,0 0.15,-17.11 428.75,0 3.4,410.659 3.4,0 3.44,-410.659 47.42,0 0.27,34.219 1.25,0 5.12,684.49 1.56,290.9 0.32,0 0.31,17.11 1.05,-68.44 0.47,0 2.81,-393.59 1.84,-427.821 0.2,0 1.21,-102.649 1.25,102.649 2.46,0 1.4,-34.219 1.72,0 1.21,-102.649 6.68,0 1.72,85.539 2.62,0 3.71,290.9 0.51,-51.33 2.62,0 3.71,-290.89 3.55,0 0.78,-34.219 0.31,34.219 2.04,0 0.15,17.11 2.93,0 1.56,85.539 0.16,-17.11 1.99,0 1.25,-17.109 0.16,17.109 1.72,0 1.52,-102.648 1.72,0 1.56,51.32 0.16,0 0.16,-17.101 1.21,0 1.56,51.32 0.31,0 2.93,205.36 0.47,-17.11 1.25,0 1.72,68.43 0.31,0 0.16,17.11 0.58,-17.11 2.97,-222.461 1.1,17.111 2.3,-136.869 0.78,51.32 1.56,0 1.21,102.659 1.26,0 4.33,393.6 0.16,-17.11 1.09,-85.55 1.25,0 4.18,-393.599 0.16,17.109 0.93,0 0.16,-17.109 1.21,0 0.31,34.219 1.25,0 0.47,-51.32 2.15,0 0.2,17.101 0.11,-17.101 2.35,0 0.31,-34.219 2.62,0 1.87,85.539 0.31,0 1.57,68.44 0.58,0 0.63,51.37 1.09,0 0.78,34.22 0.32,-34.22 0.46,0 1.88,-102.701 0.74,0 1.56,-85.539 1.1,0 0.47,-34.219 9.61,0 0.31,34.219 1.37,0 0.15,17.11 4.96,0 0.32,-34.219 1.4,0 0.16,-17.11 37.65,0 0.16,17.11 6.64,0 0.2,-17.11 420.97,0 0.16,17.11 1.52,0 0.63,51.32 1.25,0 0.15,17.109 3.09,0 0.16,-17.109 1.56,0 0.78,-51.32 0.16,17.109 0.89,0 1.25,-17.109 2.19,222.459 1.88,0 0.43,17.11 0.15,-17.11 2.35,0 0.15,17.11 2.15,-171.14 0.31,17.11 1.25,17.109 0.94,0 0.16,17.11 1.72,0 0.74,-51.329 0.94,0 1.25,-51.32 1.05,0 1.09,-34.219 4.97,0 0.62,68.43 6.06,0 0.15,17.109 0.63,-68.429 6.05,0 0.16,-17.11 11.13,0 1.88,290.899 4.64,1574.33 1.25,119.77 0.47,-51.33 4.92,-1728.32 1.41,-205.349 46.84,0 0.74,34.219 3.9,0 5.4,718.71 3.75,598.9 1.52,290.94 1.87,393.59 2.35,222.43 6.95,-1386.1 0.16,17.11 0.78,0 0.78,-171.09 0.47,102.65 0.94,85.55 0.27,-34.22 0.16,0 1.25,34.22 1.56,-136.87 2.3,-376.49 1.72,-273.791 1.41,-85.539 0.27,-34.219 25.59,0 0.15,17.11 6.68,0 0.16,-17.11 14.26,0 3.86,342.219 2.97,0 3.87,-342.219 17.66,0 0.31,34.219 2.93,0 0.78,51.32 2.81,0 0.47,-34.21 0.74,17.101 0.78,85.549 1.25,0 0.79,-34.221 3.24,0 1.56,-102.648 1.56,0 0.16,-17.11 26.8,0 0.15,17.11 6.37,0 0.31,17.109 0.16,-17.109 6.33,0 0.15,-17.11 1714.3,0 0.16,17.11 6.52,0 0.16,17.109 0.15,-17.109 13.32,0 0.16,-17.11 40.31,0 1.52,290.899 1.72,1197.85 4.03,2618.16 0.31,-34.22 2.5,-1180.74 4.18,-2669.49 2.46,-222.459 2.81,0 0.16,17.11 5.7,0 0.94,17.109 0.16,-17.109 5.74,0 0.15,-17.11 30.39,0 1.88,239.569 1.68,0 0.78,34.22 0.78,0 1.68,85.54 2.97,-222.461 0.62,17.111 0.16,-17.111 0.43,0 1.56,-51.329 0.32,0 0.31,-34.21 1.56,0 0.94,-17.11 0.12,17.11 1.25,0 1.4,85.539 0.31,0 0.32,-17.11 0.15,17.11 1.57,119.811 1.36,273.79 2.19,239.57 0.62,34.22 0.59,-17.11 0.2,0 2.14,376.44 0.47,-51.33 0.16,17.11 1.21,51.37 0.35,-17.15 1.84,171.13 0.15,0 0.47,68.48 0.47,-68.48 4.81,-564.68 0.31,68.43 2.77,581.84 0.16,0 1.4,85.55 1.57,-171.14 0.15,34.22 0.32,0 0.58,-153.98 1.88,-359.38 0.15,17.11 2.46,-462.03 2.35,359.38 1.72,342.22 0.31,-17.11 2.93,410.71 1.72,-308.01 5.43,-1060.981 0.9,0 1.87,-136.868 1.88,0 0.15,17.11 6.64,0 0.16,-17.11 6.21,0 0.16,17.11 6.68,0 0.11,-17.11 24.34,0 0.62,68.43 1.72,0 1.1,34.219 3.39,0 0.63,-68.43 1.72,0 1.05,-34.219 20.63,0 0.47,34.219 6.36,0 0.43,-34.219 398.99,0 0.94,34.219 0.78,0 0.15,17.11 3.87,0 6.84,701.6 35,0 0.31,-34.22 1.87,0 0.16,-17.11 2.93,0 0.16,-17.15 1.4,0 0.31,34.26 1.84,0 0.63,17.11 0.15,-17.11 0.47,0 0.78,-34.26 4.96,855.63 0.32,-17.11 0.15,17.11 1.25,68.47 1.37,-273.83 2.5,-770.03 1.84,-427.821 2.03,-136.868 14.1,0 0.15,17.11 6.68,0 0.16,-17.11 25.39,0 1.25,171.089 5.59,0 1.25,-171.089 10.07,0 0.16,17.11 6.33,0 0.31,17.109 0.16,-17.109 3.28,0 2.15,153.979 0.94,0 0.93,-17.11 0.16,17.11 2.77,0 0.63,-17.11 0.15,17.11 0.47,0 0.78,-51.331 1.88,0 1.21,-17.109 1.87,102.7 1.1,-85.591 3.87,0 1.83,-119.758 1.88,0 2.03,239.569 4.8,0 1.99,-239.569 1.41,0 1.09,102.649 5.75,0 1.05,-102.649 15.51,0 1.09,51.329 0.63,0 1.52,51.32 3.6,0 1.09,-51.32 0.58,0 1.57,-51.329 10.7,0 5.74,598.899 1.06,0 3.12,-273.79 0.74,0 1.88,-222.46 2.03,0 1.21,-102.649 53.95,0"
             style="fill:none;stroke:#0000ff;stroke-width:10;stroke-linecap:square;stroke-linejoin:round;stroke-miterlimit:100000;stroke-dasharray:none;stroke-opacity:1"
             id="path26"
             inkscape:connector-curvature="0" /><path
             d="m 1404.65,4954.1 6696.01,0"
             style="fill:none;stroke:#000000;stroke-width:20;stroke-linecap:butt;stroke-linejoin:round;stroke-miterlimit:100000;stroke-dasharray:60, 60;stroke-dashoffset:0;stroke-opacity:1"
             id="path28"
             inkscape:connector-curvature="0" /></g></g><path
         d="m 1404.65,5455.16 6696.01,0"
         style="fill:none;stroke:#000000;stroke-width:10;stroke-linecap:square;stroke-linejoin:miter;stroke-miterlimit:100000;stroke-dasharray:none;stroke-opacity:1"
         id="path30"
         inkscape:connector-curvature="0" /><path
         d="m 1404.65,847.191 6696.01,0"
         style="fill:none;stroke:#000000;stroke-width:10;stroke-linecap:square;stroke-linejoin:miter;stroke-miterlimit:100000;stroke-dasharray:none;stroke-opacity:1"
         id="path32"
         inkscape:connector-curvature="0" /><path
         d="m 8100.66,847.191 0,4607.969"
         style="fill:none;stroke:#000000;stroke-width:10;stroke-linecap:square;stroke-linejoin:miter;stroke-miterlimit:100000;stroke-dasharray:none;stroke-opacity:1"
         id="path34"
         inkscape:connector-curvature="0" /><path
         d="m 1404.65,847.191 0,4607.969"
         style="fill:none;stroke:#000000;stroke-width:10;stroke-linecap:square;stroke-linejoin:miter;stroke-miterlimit:100000;stroke-dasharray:none;stroke-opacity:1"
         id="path36"
         inkscape:connector-curvature="0" /><g
         id="g38"><g
           id="g40"
           clip-path="url(#clipPath42)"><path
             d="m 1404.65,847.191 0,4607.969"
             style="fill:none;stroke:#000000;stroke-width:5;stroke-linecap:butt;stroke-linejoin:round;stroke-miterlimit:100000;stroke-dasharray:10, 30;stroke-dashoffset:0;stroke-opacity:1"
             id="path46"
             inkscape:connector-curvature="0" /></g></g><path
         d="m 1404.65,847.191 0,40"
         style="fill:none;stroke:#000000;stroke-width:5;stroke-linecap:butt;stroke-linejoin:round;stroke-miterlimit:100000;stroke-dasharray:none;stroke-opacity:1"
         id="path48"
         inkscape:connector-curvature="0" /><path
         d="m 1404.65,5455.16 0,-40"
         style="fill:none;stroke:#000000;stroke-width:5;stroke-linecap:butt;stroke-linejoin:round;stroke-miterlimit:100000;stroke-dasharray:none;stroke-opacity:1"
         id="path50"
         inkscape:connector-curvature="0" /><g
         id="g52"
         transform="scale(10,10)"><text
           transform="matrix(1,0,0,-1,130.919,57.9203)"
           style="font-variant:normal;font-weight:normal;font-size:30px;line-height:0%;font-family:Arial;-inkscape-font-specification:ArialMT;writing-mode:lr-tb;fill:#000000;fill-opacity:1;fill-rule:nonzero;stroke:none"
           id="text54"><tspan
             x="0"
             y="0"
             id="tspan56">0</tspan></text>
</g><g
         id="g58"><g
           id="g60"
           clip-path="url(#clipPath62)"><path
             d="m 2743.87,847.191 0,4607.969"
             style="fill:none;stroke:#000000;stroke-width:5;stroke-linecap:butt;stroke-linejoin:round;stroke-miterlimit:100000;stroke-dasharray:10, 30;stroke-dashoffset:0;stroke-opacity:1"
             id="path66"
             inkscape:connector-curvature="0" /></g></g><path
         d="m 2743.87,847.191 0,40"
         style="fill:none;stroke:#000000;stroke-width:5;stroke-linecap:butt;stroke-linejoin:round;stroke-miterlimit:100000;stroke-dasharray:none;stroke-opacity:1"
         id="path68"
         inkscape:connector-curvature="0" /><path
         d="m 2743.87,5455.16 0,-40"
         style="fill:none;stroke:#000000;stroke-width:5;stroke-linecap:butt;stroke-linejoin:round;stroke-miterlimit:100000;stroke-dasharray:none;stroke-opacity:1"
         id="path70"
         inkscape:connector-curvature="0" /><g
         id="g72"
         transform="scale(10,10)"><text
           transform="matrix(1,0,0,-1,264.839,57.9203)"
           style="font-variant:normal;font-weight:normal;font-size:30px;line-height:0%;font-family:Arial;-inkscape-font-specification:ArialMT;writing-mode:lr-tb;fill:#000000;fill-opacity:1;fill-rule:nonzero;stroke:none"
           id="text74"><tspan
             x="0"
             y="0"
             id="tspan76">2</tspan></text>
</g><g
         id="g78"><g
           id="g80"
           clip-path="url(#clipPath82)"><path
             d="m 4083.05,847.191 0,4607.969"
             style="fill:none;stroke:#000000;stroke-width:5;stroke-linecap:butt;stroke-linejoin:round;stroke-miterlimit:100000;stroke-dasharray:10, 30;stroke-dashoffset:0;stroke-opacity:1"
             id="path86"
             inkscape:connector-curvature="0" /></g></g><path
         d="m 4083.05,847.191 0,40"
         style="fill:none;stroke:#000000;stroke-width:5;stroke-linecap:butt;stroke-linejoin:round;stroke-miterlimit:100000;stroke-dasharray:none;stroke-opacity:1"
         id="path88"
         inkscape:connector-curvature="0" /><path
         d="m 4083.05,5455.16 0,-40"
         style="fill:none;stroke:#000000;stroke-width:5;stroke-linecap:butt;stroke-linejoin:round;stroke-miterlimit:100000;stroke-dasharray:none;stroke-opacity:1"
         id="path90"
         inkscape:connector-curvature="0" /><g
         id="g92"
         transform="scale(10,10)"><text
           transform="matrix(1,0,0,-1,398.759,57.9203)"
           style="font-variant:normal;font-weight:normal;font-size:30px;line-height:0%;font-family:Arial;-inkscape-font-specification:ArialMT;writing-mode:lr-tb;fill:#000000;fill-opacity:1;fill-rule:nonzero;stroke:none"
           id="text94"><tspan
             x="0"
             y="0"
             id="tspan96">4</tspan></text>
</g><g
         id="g98"><g
           id="g100"
           clip-path="url(#clipPath102)"><path
             d="m 5422.27,847.191 0,4607.969"
             style="fill:none;stroke:#000000;stroke-width:5;stroke-linecap:butt;stroke-linejoin:round;stroke-miterlimit:100000;stroke-dasharray:10, 30;stroke-dashoffset:0;stroke-opacity:1"
             id="path106"
             inkscape:connector-curvature="0" /></g></g><path
         d="m 5422.27,847.191 0,40"
         style="fill:none;stroke:#000000;stroke-width:5;stroke-linecap:butt;stroke-linejoin:round;stroke-miterlimit:100000;stroke-dasharray:none;stroke-opacity:1"
         id="path108"
         inkscape:connector-curvature="0" /><path
         d="m 5422.27,5455.16 0,-40"
         style="fill:none;stroke:#000000;stroke-width:5;stroke-linecap:butt;stroke-linejoin:round;stroke-miterlimit:100000;stroke-dasharray:none;stroke-opacity:1"
         id="path110"
         inkscape:connector-curvature="0" /><g
         id="g112"
         transform="scale(10,10)"><text
           transform="matrix(1,0,0,-1,532.679,57.9203)"
           style="font-variant:normal;font-weight:normal;font-size:30px;line-height:0%;font-family:Arial;-inkscape-font-specification:ArialMT;writing-mode:lr-tb;fill:#000000;fill-opacity:1;fill-rule:nonzero;stroke:none"
           id="text114"><tspan
             x="0"
             y="0"
             id="tspan116">6</tspan></text>
</g><g
         id="g118"><g
           id="g120"
           clip-path="url(#clipPath122)"><path
             d="m 6761.45,847.191 0,4607.969"
             style="fill:none;stroke:#000000;stroke-width:5;stroke-linecap:butt;stroke-linejoin:round;stroke-miterlimit:100000;stroke-dasharray:10, 30;stroke-dashoffset:0;stroke-opacity:1"
             id="path126"
             inkscape:connector-curvature="0" /></g></g><path
         d="m 6761.45,847.191 0,40"
         style="fill:none;stroke:#000000;stroke-width:5;stroke-linecap:butt;stroke-linejoin:round;stroke-miterlimit:100000;stroke-dasharray:none;stroke-opacity:1"
         id="path128"
         inkscape:connector-curvature="0" /><path
         d="m 6761.45,5455.16 0,-40"
         style="fill:none;stroke:#000000;stroke-width:5;stroke-linecap:butt;stroke-linejoin:round;stroke-miterlimit:100000;stroke-dasharray:none;stroke-opacity:1"
         id="path130"
         inkscape:connector-curvature="0" /><g
         id="g132"
         transform="scale(10,10)"><text
           transform="matrix(1,0,0,-1,666.599,57.9203)"
           style="font-variant:normal;font-weight:normal;font-size:30px;line-height:0%;font-family:Arial;-inkscape-font-specification:ArialMT;writing-mode:lr-tb;fill:#000000;fill-opacity:1;fill-rule:nonzero;stroke:none"
           id="text134"><tspan
             x="0"
             y="0"
             id="tspan136">8</tspan></text>
</g><g
         id="g138"><g
           id="g140"
           clip-path="url(#clipPath142)"><path
             d="m 8100.66,847.191 0,4607.969"
             style="fill:none;stroke:#000000;stroke-width:5;stroke-linecap:butt;stroke-linejoin:round;stroke-miterlimit:100000;stroke-dasharray:10, 30;stroke-dashoffset:0;stroke-opacity:1"
             id="path146"
             inkscape:connector-curvature="0" /></g></g><path
         d="m 8100.66,847.191 0,40"
         style="fill:none;stroke:#000000;stroke-width:5;stroke-linecap:butt;stroke-linejoin:round;stroke-miterlimit:100000;stroke-dasharray:none;stroke-opacity:1"
         id="path148"
         inkscape:connector-curvature="0" /><path
         d="m 8100.66,5455.16 0,-40"
         style="fill:none;stroke:#000000;stroke-width:5;stroke-linecap:butt;stroke-linejoin:round;stroke-miterlimit:100000;stroke-dasharray:none;stroke-opacity:1"
         id="path150"
         inkscape:connector-curvature="0" /><g
         id="g152"
         transform="scale(10,10)"><text
           transform="matrix(1,0,0,-1,790.972,57.9203)"
           style="font-variant:normal;font-weight:normal;line-height:0%;font-family:Arial;-inkscape-font-specification:ArialMT;writing-mode:lr-tb;fill:#000000;fill-opacity:1;fill-rule:nonzero;stroke:none"
           id="text154"><tspan
             x="0 19.080194"
             y="0"
             sodipodi:role="line"
             id="tspan156"
             style="font-size:30px;line-height:1.25">10</tspan></text>
<text
           transform="matrix(1,0,0,-1,296.688,16.2953)"
           style="font-variant:normal;font-weight:normal;line-height:0%;font-family:Arial;-inkscape-font-specification:ArialMT;writing-mode:lr-tb;fill:#000000;fill-opacity:1;fill-rule:nonzero;stroke:none"
           id="text158"><tspan
             x="0 20.040001 42.279999 75.719925 97.959923 117.95992 129.07993 151.31992 173.55992 184.67992 206.91992 229.15993 251.39992 273.63992 284.75992 295.87991 318.11993 340.35992 351.47992 360.35992 382.71985 404.95984 418.27985"
             y="0"
             sodipodi:role="line"
             id="tspan160"
             style="font-size:40px;line-height:1.25">Temps de début en jours</tspan></text>
</g><g
         id="g162"><g
           id="g164"
           clip-path="url(#clipPath166)"><path
             d="m 1404.65,847.191 6696.01,0"
             style="fill:none;stroke:#000000;stroke-width:5;stroke-linecap:butt;stroke-linejoin:round;stroke-miterlimit:100000;stroke-dasharray:10, 30;stroke-dashoffset:0;stroke-opacity:1"
             id="path170"
             inkscape:connector-curvature="0" /></g></g><path
         d="m 1404.65,847.191 40,0"
         style="fill:none;stroke:#000000;stroke-width:5;stroke-linecap:butt;stroke-linejoin:round;stroke-miterlimit:100000;stroke-dasharray:none;stroke-opacity:1"
         id="path172"
         inkscape:connector-curvature="0" /><path
         d="m 8100.66,847.191 -40,0"
         style="fill:none;stroke:#000000;stroke-width:5;stroke-linecap:butt;stroke-linejoin:round;stroke-miterlimit:100000;stroke-dasharray:none;stroke-opacity:1"
         id="path174"
         inkscape:connector-curvature="0" /><g
         id="g176"
         transform="scale(10,10)"><text
           transform="matrix(1,0,0,-1,50.5598,76.4359)"
           style="font-variant:normal;font-weight:normal;line-height:0%;font-family:Arial;-inkscape-font-specification:ArialMT;writing-mode:lr-tb;fill:#000000;fill-opacity:1;fill-rule:nonzero;stroke:none"
           id="text178"><tspan
             x="0 19.080194 28.62039 47.700584 66.780777"
             y="0"
             sodipodi:role="line"
             id="tspan180"
             style="font-size:30px;line-height:1.25">0.000</tspan></text>
</g><g
         id="g182"><g
           id="g184"
           clip-path="url(#clipPath186)"><path
             d="m 1404.65,1359.18 6696.01,0"
             style="fill:none;stroke:#000000;stroke-width:5;stroke-linecap:butt;stroke-linejoin:round;stroke-miterlimit:100000;stroke-dasharray:10, 30;stroke-dashoffset:0;stroke-opacity:1"
             id="path190"
             inkscape:connector-curvature="0" /></g></g><path
         d="m 1404.65,1359.18 40,0"
         style="fill:none;stroke:#000000;stroke-width:5;stroke-linecap:butt;stroke-linejoin:round;stroke-miterlimit:100000;stroke-dasharray:none;stroke-opacity:1"
         id="path192"
         inkscape:connector-curvature="0" /><path
         d="m 8100.66,1359.18 -40,0"
         style="fill:none;stroke:#000000;stroke-width:5;stroke-linecap:butt;stroke-linejoin:round;stroke-miterlimit:100000;stroke-dasharray:none;stroke-opacity:1"
         id="path194"
         inkscape:connector-curvature="0" /><g
         id="g196"
         transform="scale(10,10)"><text
           transform="matrix(1,0,0,-1,50.5598,127.636)"
           style="font-variant:normal;font-weight:normal;line-height:0%;font-family:Arial;-inkscape-font-specification:ArialMT;writing-mode:lr-tb;fill:#000000;fill-opacity:1;fill-rule:nonzero;stroke:none"
           id="text198"><tspan
             x="0 19.080194 28.62039 47.700584 66.780777"
             y="0"
             sodipodi:role="line"
             id="tspan200"
             style="font-size:30px;line-height:1.25">0.005</tspan></text>
</g><g
         id="g202"><g
           id="g204"
           clip-path="url(#clipPath206)"><path
             d="m 1404.65,1871.17 6696.01,0"
             style="fill:none;stroke:#000000;stroke-width:5;stroke-linecap:butt;stroke-linejoin:round;stroke-miterlimit:100000;stroke-dasharray:10, 30;stroke-dashoffset:0;stroke-opacity:1"
             id="path210"
             inkscape:connector-curvature="0" /></g></g><path
         d="m 1404.65,1871.17 40,0"
         style="fill:none;stroke:#000000;stroke-width:5;stroke-linecap:butt;stroke-linejoin:round;stroke-miterlimit:100000;stroke-dasharray:none;stroke-opacity:1"
         id="path212"
         inkscape:connector-curvature="0" /><path
         d="m 8100.66,1871.17 -40,0"
         style="fill:none;stroke:#000000;stroke-width:5;stroke-linecap:butt;stroke-linejoin:round;stroke-miterlimit:100000;stroke-dasharray:none;stroke-opacity:1"
         id="path214"
         inkscape:connector-curvature="0" /><g
         id="g216"
         transform="scale(10,10)"><text
           transform="matrix(1,0,0,-1,50.5598,178.836)"
           style="font-variant:normal;font-weight:normal;line-height:0%;font-family:Arial;-inkscape-font-specification:ArialMT;writing-mode:lr-tb;fill:#000000;fill-opacity:1;fill-rule:nonzero;stroke:none"
           id="text218"><tspan
             x="0 19.080194 28.62039 47.700584 66.780777"
             y="0"
             sodipodi:role="line"
             id="tspan220"
             style="font-size:30px;line-height:1.25">0.010</tspan></text>
</g><g
         id="g222"><g
           id="g224"
           clip-path="url(#clipPath226)"><path
             d="m 1404.65,2383.16 6696.01,0"
             style="fill:none;stroke:#000000;stroke-width:5;stroke-linecap:butt;stroke-linejoin:round;stroke-miterlimit:100000;stroke-dasharray:10, 30;stroke-dashoffset:0;stroke-opacity:1"
             id="path230"
             inkscape:connector-curvature="0" /></g></g><path
         d="m 1404.65,2383.16 40,0"
         style="fill:none;stroke:#000000;stroke-width:5;stroke-linecap:butt;stroke-linejoin:round;stroke-miterlimit:100000;stroke-dasharray:none;stroke-opacity:1"
         id="path232"
         inkscape:connector-curvature="0" /><path
         d="m 8100.66,2383.16 -40,0"
         style="fill:none;stroke:#000000;stroke-width:5;stroke-linecap:butt;stroke-linejoin:round;stroke-miterlimit:100000;stroke-dasharray:none;stroke-opacity:1"
         id="path234"
         inkscape:connector-curvature="0" /><g
         id="g236"
         transform="scale(10,10)"><text
           transform="matrix(1,0,0,-1,50.5598,230.036)"
           style="font-variant:normal;font-weight:normal;line-height:0%;font-family:Arial;-inkscape-font-specification:ArialMT;writing-mode:lr-tb;fill:#000000;fill-opacity:1;fill-rule:nonzero;stroke:none"
           id="text238"><tspan
             x="0 19.080194 28.62039 47.700584 66.780777"
             y="0"
             sodipodi:role="line"
             id="tspan240"
             style="font-size:30px;line-height:1.25">0.015</tspan></text>
</g><g
         id="g242"><g
           id="g244"
           clip-path="url(#clipPath246)"><path
             d="m 1404.65,2895.16 6696.01,0"
             style="fill:none;stroke:#000000;stroke-width:5;stroke-linecap:butt;stroke-linejoin:round;stroke-miterlimit:100000;stroke-dasharray:10, 30;stroke-dashoffset:0;stroke-opacity:1"
             id="path250"
             inkscape:connector-curvature="0" /></g></g><path
         d="m 1404.65,2895.16 40,0"
         style="fill:none;stroke:#000000;stroke-width:5;stroke-linecap:butt;stroke-linejoin:round;stroke-miterlimit:100000;stroke-dasharray:none;stroke-opacity:1"
         id="path252"
         inkscape:connector-curvature="0" /><path
         d="m 8100.66,2895.16 -40,0"
         style="fill:none;stroke:#000000;stroke-width:5;stroke-linecap:butt;stroke-linejoin:round;stroke-miterlimit:100000;stroke-dasharray:none;stroke-opacity:1"
         id="path254"
         inkscape:connector-curvature="0" /><g
         id="g256"
         transform="scale(10,10)"><text
           transform="matrix(1,0,0,-1,50.5598,281.236)"
           style="font-variant:normal;font-weight:normal;line-height:0%;font-family:Arial;-inkscape-font-specification:ArialMT;writing-mode:lr-tb;fill:#000000;fill-opacity:1;fill-rule:nonzero;stroke:none"
           id="text258"><tspan
             x="0 19.080194 28.62039 47.700584 66.780777"
             y="0"
             sodipodi:role="line"
             id="tspan260"
             style="font-size:30px;line-height:1.25">0.020</tspan></text>
</g><g
         id="g262"><g
           id="g264"
           clip-path="url(#clipPath266)"><path
             d="m 1404.65,3407.19 6696.01,0"
             style="fill:none;stroke:#000000;stroke-width:5;stroke-linecap:butt;stroke-linejoin:round;stroke-miterlimit:100000;stroke-dasharray:10, 30;stroke-dashoffset:0;stroke-opacity:1"
             id="path270"
             inkscape:connector-curvature="0" /></g></g><path
         d="m 1404.65,3407.19 40,0"
         style="fill:none;stroke:#000000;stroke-width:5;stroke-linecap:butt;stroke-linejoin:round;stroke-miterlimit:100000;stroke-dasharray:none;stroke-opacity:1"
         id="path272"
         inkscape:connector-curvature="0" /><path
         d="m 8100.66,3407.19 -40,0"
         style="fill:none;stroke:#000000;stroke-width:5;stroke-linecap:butt;stroke-linejoin:round;stroke-miterlimit:100000;stroke-dasharray:none;stroke-opacity:1"
         id="path274"
         inkscape:connector-curvature="0" /><g
         id="g276"
         transform="scale(10,10)"><text
           transform="matrix(1,0,0,-1,50.5598,332.436)"
           style="font-variant:normal;font-weight:normal;line-height:0%;font-family:Arial;-inkscape-font-specification:ArialMT;writing-mode:lr-tb;fill:#000000;fill-opacity:1;fill-rule:nonzero;stroke:none"
           id="text278"><tspan
             x="0 19.080194 28.62039 47.700584 66.780777"
             y="0"
             sodipodi:role="line"
             id="tspan280"
             style="font-size:30px;line-height:1.25">0.025</tspan></text>
</g><g
         id="g282"><g
           id="g284"
           clip-path="url(#clipPath286)"><path
             d="m 1404.65,3919.18 6696.01,0"
             style="fill:none;stroke:#000000;stroke-width:5;stroke-linecap:butt;stroke-linejoin:round;stroke-miterlimit:100000;stroke-dasharray:10, 30;stroke-dashoffset:0;stroke-opacity:1"
             id="path290"
             inkscape:connector-curvature="0" /></g></g><path
         d="m 1404.65,3919.18 40,0"
         style="fill:none;stroke:#000000;stroke-width:5;stroke-linecap:butt;stroke-linejoin:round;stroke-miterlimit:100000;stroke-dasharray:none;stroke-opacity:1"
         id="path292"
         inkscape:connector-curvature="0" /><path
         d="m 8100.66,3919.18 -40,0"
         style="fill:none;stroke:#000000;stroke-width:5;stroke-linecap:butt;stroke-linejoin:round;stroke-miterlimit:100000;stroke-dasharray:none;stroke-opacity:1"
         id="path294"
         inkscape:connector-curvature="0" /><g
         id="g296"
         transform="scale(10,10)"><text
           transform="matrix(1,0,0,-1,50.5598,383.636)"
           style="font-variant:normal;font-weight:normal;line-height:0%;font-family:Arial;-inkscape-font-specification:ArialMT;writing-mode:lr-tb;fill:#000000;fill-opacity:1;fill-rule:nonzero;stroke:none"
           id="text298"><tspan
             x="0 19.080194 28.62039 47.700584 66.780777"
             y="0"
             sodipodi:role="line"
             id="tspan300"
             style="font-size:30px;line-height:1.25">0.030</tspan></text>
</g><g
         id="g302"><g
           id="g304"
           clip-path="url(#clipPath306)"><path
             d="m 1404.65,4431.17 6696.01,0"
             style="fill:none;stroke:#000000;stroke-width:5;stroke-linecap:butt;stroke-linejoin:round;stroke-miterlimit:100000;stroke-dasharray:10, 30;stroke-dashoffset:0;stroke-opacity:1"
             id="path310"
             inkscape:connector-curvature="0" /></g></g><path
         d="m 1404.65,4431.17 40,0"
         style="fill:none;stroke:#000000;stroke-width:5;stroke-linecap:butt;stroke-linejoin:round;stroke-miterlimit:100000;stroke-dasharray:none;stroke-opacity:1"
         id="path312"
         inkscape:connector-curvature="0" /><path
         d="m 8100.66,4431.17 -40,0"
         style="fill:none;stroke:#000000;stroke-width:5;stroke-linecap:butt;stroke-linejoin:round;stroke-miterlimit:100000;stroke-dasharray:none;stroke-opacity:1"
         id="path314"
         inkscape:connector-curvature="0" /><g
         id="g316"
         transform="scale(10,10)"><text
           transform="matrix(1,0,0,-1,50.5598,434.836)"
           style="font-variant:normal;font-weight:normal;line-height:0%;font-family:Arial;-inkscape-font-specification:ArialMT;writing-mode:lr-tb;fill:#000000;fill-opacity:1;fill-rule:nonzero;stroke:none"
           id="text318"><tspan
             x="0 19.080194 28.62039 47.700584 66.780777"
             y="0"
             sodipodi:role="line"
             id="tspan320"
             style="font-size:30px;line-height:1.25">0.035</tspan></text>
</g><g
         id="g322"><g
           id="g324"
           clip-path="url(#clipPath326)"><path
             d="m 1404.65,4943.16 6696.01,0"
             style="fill:none;stroke:#000000;stroke-width:5;stroke-linecap:butt;stroke-linejoin:round;stroke-miterlimit:100000;stroke-dasharray:10, 30;stroke-dashoffset:0;stroke-opacity:1"
             id="path330"
             inkscape:connector-curvature="0" /></g></g><path
         d="m 1404.65,4943.16 40,0"
         style="fill:none;stroke:#000000;stroke-width:5;stroke-linecap:butt;stroke-linejoin:round;stroke-miterlimit:100000;stroke-dasharray:none;stroke-opacity:1"
         id="path332"
         inkscape:connector-curvature="0" /><path
         d="m 8100.66,4943.16 -40,0"
         style="fill:none;stroke:#000000;stroke-width:5;stroke-linecap:butt;stroke-linejoin:round;stroke-miterlimit:100000;stroke-dasharray:none;stroke-opacity:1"
         id="path334"
         inkscape:connector-curvature="0" /><g
         id="g336"
         transform="scale(10,10)"><text
           transform="matrix(1,0,0,-1,50.5598,486.036)"
           style="font-variant:normal;font-weight:normal;line-height:0%;font-family:Arial;-inkscape-font-specification:ArialMT;writing-mode:lr-tb;fill:#000000;fill-opacity:1;fill-rule:nonzero;stroke:none"
           id="text338"><tspan
             x="0 19.080194 28.62039 47.700584 66.780777"
             y="0"
             sodipodi:role="line"
             id="tspan340"
             style="font-size:30px;line-height:1.25">0.040</tspan></text>
</g><g
         id="g342"><g
           id="g344"
           clip-path="url(#clipPath346)"><path
             d="m 1404.65,5455.16 6696.01,0"
             style="fill:none;stroke:#000000;stroke-width:5;stroke-linecap:butt;stroke-linejoin:round;stroke-miterlimit:100000;stroke-dasharray:10, 30;stroke-dashoffset:0;stroke-opacity:1"
             id="path350"
             inkscape:connector-curvature="0" /></g></g><path
         d="m 1404.65,5455.16 40,0"
         style="fill:none;stroke:#000000;stroke-width:5;stroke-linecap:butt;stroke-linejoin:round;stroke-miterlimit:100000;stroke-dasharray:none;stroke-opacity:1"
         id="path352"
         inkscape:connector-curvature="0" /><path
         d="m 8100.66,5455.16 -40,0"
         style="fill:none;stroke:#000000;stroke-width:5;stroke-linecap:butt;stroke-linejoin:round;stroke-miterlimit:100000;stroke-dasharray:none;stroke-opacity:1"
         id="path354"
         inkscape:connector-curvature="0" /><g
         id="g356"
         transform="scale(10,10)"><text
           transform="matrix(1,0,0,-1,50.5598,537.236)"
           style="font-variant:normal;font-weight:normal;line-height:0%;font-family:Arial;-inkscape-font-specification:ArialMT;writing-mode:lr-tb;fill:#000000;fill-opacity:1;fill-rule:nonzero;stroke:none"
           id="text358"><tspan
             x="0 19.080194 28.62039 47.700584 66.780777"
             y="0"
             sodipodi:role="line"
             id="tspan360"
             style="font-size:30px;line-height:1.25">0.045</tspan></text>
<text
           transform="matrix(0,1,1,0,37.2316,239.078)"
           style="font-variant:normal;font-weight:normal;line-height:0%;font-family:Arial;-inkscape-font-specification:ArialMT;writing-mode:lr-tb;fill:#000000;fill-opacity:1;fill-rule:nonzero;stroke:none"
           id="text362"><tspan
             x="0 30.799919 55.400078 80.759995 101.59984 112.67984 123.79984"
             y="0"
             sodipodi:role="line"
             id="tspan364"
             style="font-size:40px;line-height:1.25">Densité</tspan></text>
</g></g><text
       xml:space="preserve"
       style="font-style:normal;font-weight:normal;line-height:0%;font-family:sans-serif;text-align:center;letter-spacing:0px;word-spacing:0px;text-anchor:middle;fill:#000000;fill-opacity:1;stroke:none;stroke-width:1px;stroke-linecap:butt;stroke-linejoin:miter;stroke-opacity:1"
       x="733.44165"
       y="-470.33783"
       id="text5750"
       transform="scale(1,-1)"><tspan
         sodipodi:role="line"
         id="tspan5752"
         x="733.44165"
         y="-470.33783"
         style="font-size:26.51566505px;line-height:1.25;font-family:sans-serif">Groupe</tspan><tspan
         sodipodi:role="line"
         x="733.44165"
         y="-437.19324"
         style="font-size:26.51566505px;line-height:1.25;font-family:sans-serif"
         id="tspan4266">détecté</tspan></text>
<circle
       style="opacity:1;fill:#000000;fill-opacity:1;stroke:none;stroke-width:1.60000002;stroke-linecap:butt;stroke-linejoin:miter;stroke-miterlimit:4;stroke-dasharray:none;stroke-dashoffset:0;stroke-opacity:1"
       id="path4268"
       cx="667.84967"
       cy="-496.15088"
       r="6.9758806"
       transform="scale(1,-1)" /><path
       d="M 668.05304,545.62848 V 85.027483"
       style="fill:none;stroke:#000000;stroke-width:2;stroke-linecap:butt;stroke-linejoin:round;stroke-miterlimit:100000;stroke-dasharray:6, 6;stroke-dashoffset:0;stroke-opacity:1"
       id="path28-2"
       inkscape:connector-curvature="0"
       sodipodi:nodetypes="cc" /></g></svg>